<?xml version="1.0" encoding="UTF-8" standalone="no"?>
<svg
   viewBox="0 0 512 512"
   version="1.1"
   id="svg4"
   sodipodi:docname="osi.svg"
   inkscape:version="1.2.2 (b0a8486541, 2022-12-01)"
   xmlns:inkscape="http://www.inkscape.org/namespaces/inkscape"
   xmlns:sodipodi="http://sodipodi.sourceforge.net/DTD/sodipodi-0.dtd"
   xmlns="http://www.w3.org/2000/svg"
   xmlns:svg="http://www.w3.org/2000/svg">
  <defs
     id="defs8" />
  <sodipodi:namedview
     id="namedview6"
     pagecolor="#ffffff"
     bordercolor="#000000"
     borderopacity="0.25"
     inkscape:showpageshadow="2"
     inkscape:pageopacity="0.0"
     inkscape:pagecheckerboard="0"
     inkscape:deskcolor="#d1d1d1"
     showgrid="false"
     inkscape:zoom="1.6660156"
     inkscape:cx="240.99414"
     inkscape:cy="292.91442"
     inkscape:window-width="1920"
     inkscape:window-height="1007"
     inkscape:window-x="0"
     inkscape:window-y="0"
     inkscape:window-maximized="1"
     inkscape:current-layer="svg4" />
  <g
     id="g352">
    <path
       id="rect289"
       style="fill:#ffffff;stroke-width:10.5827;stroke-linecap:round"
       d="M 251.14844 36.904297 C 247.02159 36.995056 242.85983 37.19108 238.66797 37.496094 C 234.4761 37.801107 230.25312 38.215235 226 38.740234 C 222.68438 39.146484 219.38593 39.62728 216.10547 40.181641 C 212.82501 40.736001 209.56327 41.364588 206.32227 42.064453 C 203.08127 42.764318 199.85934 43.536143 196.66211 44.378906 C 193.46487 45.22167 190.29174 46.134132 187.14258 47.117188 C 183.99341 48.100243 180.86828 49.152696 177.77148 50.273438 C 174.67469 51.394179 171.60653 52.584022 168.56641 53.839844 C 165.52628 55.095665 162.5143 56.418346 159.53516 57.806641 C 156.55601 59.194936 153.60918 60.647853 150.69531 62.166016 C 147.78145 63.684178 144.90092 65.266686 142.05664 66.912109 C 139.21236 68.557533 136.40516 70.267031 133.63477 72.037109 C 130.86437 73.807188 128.13166 75.639122 125.43945 77.53125 C 122.74725 79.423378 120.09409 81.375148 117.48438 83.386719 C 114.87466 85.398289 112.30808 87.46925 109.78516 89.597656 C 107.26224 91.726063 104.78338 93.91166 102.35156 96.154297 C 99.919741 98.396934 97.535639 100.69652 95.199219 103.05078 C 92.862798 105.40504 90.574607 107.81406 88.337891 110.27734 C 86.101174 112.74062 83.915913 115.25843 81.783203 117.82812 C 79.650493 120.39782 77.569322 123.01986 75.544922 125.69336 C 73.520522 128.36686 71.552412 131.09054 69.640625 133.86523 C 67.728838 136.63993 65.874949 139.4646 64.080078 142.33789 C 62.285207 145.21118 60.548653 148.13424 58.875 151.10352 C 57.201347 154.07279 55.589146 157.08969 54.041016 160.15234 C 52.492885 163.215 51.00815 166.32313 49.589844 169.47656 C 48.171538 172.62999 46.819335 175.82871 45.535156 179.07031 C 44.250978 182.31191 43.036373 185.59667 41.890625 188.92383 C 40.744877 192.25099 39.66903 195.61918 38.666016 199.0293 C 37.663001 202.43941 36.732931 205.89039 35.876953 209.38086 C 35.020976 212.87133 34.239794 216.40249 33.535156 219.9707 C 32.830518 223.53891 32.201339 227.14572 31.652344 230.78906 C 31.103348 234.43241 30.633191 238.11225 30.244141 241.82812 C 29.855091 245.544 29.547067 249.29428 29.322266 253.08008 C 29.097464 256.86588 28.956641 260.68594 28.900391 264.53906 C 29.10039 267.83906 29.25 271.41563 29.4375 275.14062 C 29.625 278.86562 29.849219 282.74063 30.199219 286.64062 C 30.592968 291.13437 31.131373 295.62571 31.814453 300.10938 C 32.497533 304.59304 33.32588 309.06924 34.298828 313.52734 C 35.271776 317.98544 36.390944 322.42669 37.654297 326.84375 C 38.91765 331.26081 40.324611 335.65313 41.878906 340.01367 C 43.433202 344.37421 45.134694 348.70169 46.980469 352.99023 C 48.826243 357.27878 50.817287 361.52745 52.955078 365.72852 C 55.092869 369.92959 57.376296 374.08352 59.806641 378.18164 C 62.236985 382.27976 64.813675 386.32305 67.537109 390.30273 C 70.260544 394.28242 73.131375 398.19915 76.148438 402.04492 C 79.1655 405.89069 82.329398 409.66495 85.640625 413.36133 C 88.951852 417.05771 92.409696 420.67552 96.015625 424.20703 C 99.621554 427.73855 103.37618 431.18399 107.27734 434.53516 C 111.17851 437.88632 115.22688 441.14348 119.42383 444.29883 C 123.62077 447.45417 127.96573 450.50713 132.45898 453.45117 C 136.95224 456.39521 141.5927 459.23001 146.38281 461.94727 C 151.17292 464.66452 156.11172 467.26524 161.19922 469.74023 C 161.99922 470.11523 162.67461 470.35234 163.25586 470.44922 C 163.83711 470.54609 164.325 470.50195 164.75 470.31445 C 165.175 470.12695 165.53789 469.79648 165.86914 469.31836 C 166.20039 468.84023 166.50078 468.21445 166.80078 467.43945 C 181.70077 428.33949 196.7008 389.24059 211.80078 350.14062 C 212.12578 349.31563 212.32422 348.60312 212.39453 347.96875 C 212.46484 347.33438 212.40664 346.77812 212.21289 346.26562 C 212.01914 345.75313 211.68984 345.28359 211.22266 344.82422 C 210.75547 344.36484 210.15039 343.91445 209.40039 343.43945 C 207.42539 342.1957 205.51252 340.91919 203.66211 339.60742 C 201.8117 338.29566 200.02392 336.94824 198.29883 335.56836 C 196.57373 334.18848 194.91155 332.77622 193.3125 331.32812 C 191.71345 329.88003 190.17734 328.39726 188.70508 326.88086 C 187.23281 325.36445 185.82327 323.81333 184.47852 322.22852 C 183.13377 320.6437 181.85322 319.02441 180.63672 317.37109 C 179.42022 315.71778 178.26916 314.03052 177.18164 312.30859 C 176.09412 310.58667 175.07109 308.82969 174.11328 307.03906 C 173.15547 305.24844 172.26096 303.42388 171.43359 301.56445 C 170.60623 299.70503 169.84463 297.81113 169.14844 295.88281 C 168.45225 293.95449 167.82209 291.99145 167.25781 289.99414 C 166.69353 287.99683 166.19531 285.96484 165.76367 283.89844 C 165.33203 281.83203 164.96819 279.7313 164.66992 277.5957 C 164.37166 275.46011 164.13877 273.29082 163.97461 271.08594 C 163.81045 268.88106 163.71487 266.64145 163.68555 264.36719 C 163.65623 262.09292 163.69453 259.7832 163.80078 257.43945 C 163.92578 254.73946 164.16465 252.08164 164.51562 249.4668 C 164.8666 246.85196 165.32969 244.28008 165.90234 241.75195 C 166.475 239.22383 167.15723 236.74062 167.94727 234.30078 C 168.7373 231.86094 169.63359 229.46523 170.63672 227.11523 C 171.63984 224.76524 172.74902 222.45976 173.96094 220.20117 C 175.17285 217.94258 176.48789 215.73008 177.9043 213.56445 C 179.3207 211.39883 180.83848 209.28008 182.45508 207.20898 C 184.07168 205.13789 185.78711 203.11562 187.59961 201.14062 C 189.47461 199.09688 191.41638 197.15339 193.41797 195.31055 C 195.41955 193.4677 197.48194 191.72412 199.59766 190.08398 C 201.71338 188.44385 203.8822 186.90632 206.09961 185.4707 C 208.31701 184.03508 210.58203 182.70195 212.88867 181.47266 C 215.19531 180.24336 217.54431 179.11687 219.92773 178.0957 C 222.31115 177.07454 224.72998 176.15889 227.17773 175.34766 C 229.62549 174.53643 232.10193 173.82996 234.60156 173.23047 C 237.10119 172.63098 239.62305 172.13789 242.16211 171.75195 C 244.70117 171.36602 247.25818 171.08855 249.82422 170.91797 C 252.39026 170.74739 254.96631 170.68389 257.54688 170.73047 C 260.12744 170.77705 262.71228 170.93367 265.29492 171.19922 C 267.87756 171.46477 270.45703 171.83984 273.0293 172.32617 C 275.60156 172.8125 278.16541 173.41023 280.71484 174.11914 C 283.26428 174.82805 285.8003 175.64873 288.31445 176.58203 C 290.82861 177.51533 293.32068 178.56121 295.78711 179.7207 C 298.25354 180.8802 300.69336 182.15156 303.09961 183.53906 A 91.64 91.64 0 0 1 307.44336 186.20703 A 91.64 91.64 0 0 1 311.63086 189.11328 A 91.64 91.64 0 0 1 315.65234 192.24609 A 91.64 91.64 0 0 1 319.49023 195.59961 A 91.64 91.64 0 0 1 323.13867 199.16016 A 91.64 91.64 0 0 1 326.58203 202.91797 A 91.64 91.64 0 0 1 329.8125 206.86133 A 91.64 91.64 0 0 1 332.81641 210.97852 A 91.64 91.64 0 0 1 335.58789 215.25586 A 91.64 91.64 0 0 1 338.11719 219.68164 A 91.64 91.64 0 0 1 340.39648 224.24023 A 91.64 91.64 0 0 1 342.41992 228.91992 A 91.64 91.64 0 0 1 344.17969 233.70312 A 91.64 91.64 0 0 1 345.66992 238.57812 A 91.64 91.64 0 0 1 346.88672 243.52734 A 91.64 91.64 0 0 1 347.82617 248.53711 A 91.64 91.64 0 0 1 348.48633 253.5918 A 91.64 91.64 0 0 1 348.86523 258.67383 A 91.64 91.64 0 0 1 348.96094 263.77148 A 91.64 91.64 0 0 1 348.77148 268.86523 A 91.64 91.64 0 0 1 348.30078 273.93945 C 347.85078 277.76445 347.21016 281.47559 346.38477 285.07227 C 345.55938 288.66894 344.54883 292.15157 343.35352 295.51953 C 342.1582 298.8875 340.77851 302.14043 339.21875 305.2793 C 337.65899 308.41816 335.91875 311.44219 334 314.35156 C 332.08125 317.26093 329.98515 320.05684 327.71289 322.73633 C 325.44063 325.41582 322.9914 327.98047 320.37109 330.42969 C 317.75078 332.8789 314.95898 335.21309 311.99609 337.43164 C 309.03321 339.65019 305.89961 341.75274 302.59961 343.74023 C 301.92461 344.14023 301.36953 344.5207 300.93359 344.91602 C 300.49766 345.31133 300.18203 345.72148 299.98828 346.17773 C 299.79453 346.63398 299.72188 347.13594 299.77344 347.71875 C 299.825 348.30156 300.00078 348.96524 300.30078 349.74023 C 315.50077 388.9402 330.56668 428.17283 345.5 467.43945 C 345.8 468.21445 346.10039 468.84023 346.43164 469.31836 C 346.76289 469.79648 347.12578 470.12695 347.55078 470.31445 C 347.97578 470.50195 348.46172 470.54609 349.04297 470.44922 C 349.62422 470.35234 350.29961 470.11523 351.09961 469.74023 C 355.5371 467.66524 359.88438 465.47832 364.13867 463.17969 C 368.39296 460.88106 372.55391 458.47109 376.62109 455.94531 C 380.68828 453.41953 384.66094 450.77793 388.53711 448.02148 C 392.41328 445.26504 396.19375 442.39297 399.875 439.40234 C 403.55625 436.41172 407.13868 433.30254 410.62109 430.07422 C 414.10351 426.8459 417.48594 423.49882 420.76562 420.0293 C 424.04531 416.55977 427.22188 412.96816 430.29492 409.25391 C 433.36797 405.53965 436.33672 401.70273 439.19922 397.74023 C 441.37422 394.72774 443.46968 391.69411 445.48438 388.63867 C 447.49907 385.58323 449.43301 382.50654 451.28711 379.4082 C 453.14121 376.30987 454.91616 373.19001 456.60938 370.04883 C 458.30259 366.90764 459.91524 363.74453 461.44727 360.56055 C 462.9793 357.37657 464.43023 354.17009 465.80078 350.94336 C 467.17134 347.71663 468.46113 344.46865 469.66992 341.19922 C 470.87871 337.92979 472.00601 334.64021 473.05273 331.32812 C 474.09946 328.01604 475.06484 324.68281 475.94922 321.32812 C 476.83359 317.97344 477.63765 314.59646 478.35938 311.19922 C 479.0811 307.80198 479.72051 304.3831 480.2793 300.94336 C 480.83809 297.50362 481.31538 294.04275 481.71094 290.56055 C 482.10649 287.07835 482.42031 283.57539 482.65234 280.05078 C 482.88437 276.52618 483.0353 272.98103 483.10352 269.41406 C 483.17173 265.8471 483.1584 262.25771 483.0625 258.64844 C 482.9666 255.03916 482.78765 251.40935 482.52734 247.75781 C 482.26704 244.10628 481.925 240.43398 481.5 236.74023 C 481.07188 233.06836 480.5532 229.41666 479.94727 225.78711 C 479.34133 222.15756 478.64912 218.55025 477.86914 214.96875 C 477.08916 211.38725 476.22175 207.83046 475.27148 204.30273 C 474.32122 200.77501 473.28672 197.2768 472.16992 193.80859 C 471.05313 190.34038 469.85378 186.90297 468.57422 183.5 C 467.29465 180.09703 465.93467 176.72848 464.49609 173.39648 C 463.05752 170.06449 461.54109 166.76896 459.94727 163.51367 C 458.35344 160.25839 456.68281 157.04199 454.9375 153.86914 C 453.19219 150.69629 451.37156 147.5671 449.47852 144.48242 C 447.58548 141.39774 445.62099 138.35797 443.58398 135.36719 C 441.54697 132.37641 439.43699 129.43412 437.25977 126.54297 C 435.08255 123.65182 432.83711 120.81118 430.52344 118.02539 C 428.20977 115.2396 425.82917 112.50868 423.38281 109.83398 C 420.93645 107.15929 418.4249 104.54225 415.84961 101.98438 C 413.27432 99.426504 410.63405 96.927503 407.93359 94.492188 C 405.23313 92.056872 402.47226 89.683982 399.65039 87.376953 C 396.82852 85.069924 393.94734 82.829261 391.00781 80.65625 C 388.06829 78.483239 385.07099 76.378965 382.01758 74.345703 C 378.96416 72.312441 375.853 70.350673 372.68945 68.462891 C 369.52591 66.575109 366.30898 64.760008 363.03906 63.023438 C 359.76914 61.286867 356.44675 59.628456 353.07422 58.048828 C 349.70169 56.4692 346.27998 54.969689 342.80859 53.552734 C 339.33721 52.13578 335.81648 50.801284 332.25 49.552734 C 328.68352 48.304185 325.06992 47.140819 321.41211 46.066406 C 317.7543 44.991993 314.05202 44.005874 310.30664 43.111328 C 306.56126 42.216783 302.77255 41.414025 298.94336 40.705078 C 295.11416 39.996131 291.24519 39.380899 287.33594 38.863281 C 283.42669 38.345664 279.47773 37.926025 275.49219 37.605469 C 271.50664 37.284912 267.48386 37.063077 263.42578 36.945312 C 259.3677 36.827548 255.27529 36.813538 251.14844 36.904297 z " />
    <path
       id="path293"
       style="fill:#000000;stroke-width:10.5827;stroke-linecap:round"
       d="M 260.19727 16.021484 C 256.00856 15.963174 251.79155 16.006384 247.54883 16.15625 C 243.30611 16.306116 239.03841 16.560776 234.74609 16.923828 C 230.45378 17.28688 226.13828 17.758594 221.80078 18.339844 C 218.16328 18.829218 214.54488 19.39866 210.95117 20.044922 C 207.35746 20.691184 203.78775 21.414246 200.24219 22.214844 C 196.69662 23.015441 193.17665 23.893323 189.68359 24.845703 C 186.19054 25.798083 182.72524 26.824171 179.28906 27.925781 C 175.85288 29.027391 172.44525 30.204837 169.07031 31.453125 C 165.69537 32.701413 162.3523 34.021649 159.04297 35.414062 C 155.73363 36.806476 152.45812 38.270702 149.21875 39.804688 C 145.97938 41.338673 142.77636 42.942228 139.61133 44.615234 C 136.44629 46.288241 133.31876 48.03037 130.23242 49.839844 C 127.14608 51.649318 124.10094 53.525361 121.09766 55.46875 C 118.09438 57.412139 115.13265 59.423295 112.2168 61.498047 C 109.30094 63.572799 106.42954 65.712453 103.60547 67.916016 C 100.7814 70.119578 98.005262 72.386977 95.277344 74.716797 C 92.549426 77.046617 89.871543 79.439053 87.244141 81.892578 C 84.616738 84.346104 82.040101 86.860869 79.517578 89.435547 C 76.995056 92.010225 74.52656 94.644612 72.113281 97.337891 C 69.700002 100.03117 67.340687 102.78247 65.041016 105.5918 C 62.741344 108.40112 60.500059 111.26858 58.318359 114.19141 C 56.13666 117.11423 54.016395 120.09319 51.957031 123.12695 C 49.897667 126.16072 47.899461 129.24847 45.966797 132.39062 C 44.034133 135.53278 42.166835 138.72857 40.365234 141.97656 C 38.563634 145.22456 36.828282 148.52567 35.162109 151.87695 C 33.495937 155.22823 31.897475 158.63002 30.371094 162.08203 C 28.844713 165.53404 27.390038 169.03575 26.007812 172.58594 C 24.625587 176.13613 23.315737 179.73504 22.082031 183.38086 C 20.848326 187.02668 19.690197 190.72009 18.609375 194.45898 C 17.528553 198.19788 16.525136 201.98113 15.601562 205.81055 C 14.677989 209.63997 13.834228 213.51425 13.072266 217.43164 C 12.310303 221.34903 11.631143 225.30969 11.035156 229.3125 C 10.43917 233.31531 9.9275997 237.36159 9.5019531 241.44727 C 9.0763066 245.53294 8.7353177 249.65823 8.484375 253.82422 C 8.2334323 257.9902 8.0718749 262.19571 8 266.43945 C 8.3999996 271.68945 8.7191413 278.03399 9.3613281 285.36523 C 9.6824216 289.03086 10.08379 292.94375 10.617188 297.08984 C 11.150585 301.23593 11.815235 305.61485 12.662109 310.21484 C 13.508984 314.81484 14.539259 319.63477 15.800781 324.66211 C 17.062303 329.68945 18.554689 334.92344 20.332031 340.35156 C 22.109373 345.77968 24.17012 351.40274 26.564453 357.20508 C 27.76162 360.10625 29.043678 363.05323 30.414062 366.04297 C 31.784447 369.03271 33.244533 372.06563 34.800781 375.14062 C 36.638279 378.76562 38.549904 382.32146 40.535156 385.81055 C 42.520408 389.29963 44.577737 392.72061 46.703125 396.07227 C 48.828513 399.42392 51.023342 402.70721 53.28125 405.91992 C 55.539158 409.13264 57.861331 412.27539 60.244141 415.34766 C 62.626951 418.41992 65.070217 421.42127 67.570312 424.35156 C 70.070408 427.28186 72.626565 430.14092 75.236328 432.92773 C 77.846091 435.71455 80.508889 438.43045 83.220703 441.07227 C 85.932517 443.71408 88.693753 446.28203 91.5 448.77734 C 94.306247 451.27265 97.157718 453.69373 100.05078 456.04102 C 102.94384 458.3883 105.8793 460.66162 108.85156 462.85938 C 111.82383 465.05713 114.83311 467.17986 117.87695 469.22656 C 120.9208 471.27326 123.99766 473.24453 127.10547 475.13867 C 130.21328 477.03281 133.35147 478.84978 136.51562 480.58984 C 139.67978 482.32991 142.8711 483.99365 146.08398 485.57812 C 149.29687 487.1626 152.53116 488.66834 155.78516 490.0957 C 159.03916 491.52307 162.31211 492.87188 165.59961 494.14062 C 166.49961 494.49062 167.37656 494.7584 168.22656 494.94727 C 169.07656 495.13613 169.89961 495.24492 170.69336 495.27539 C 171.48711 495.30586 172.25117 495.25801 172.98242 495.13281 C 173.71367 495.00762 174.41172 494.80547 175.07422 494.52734 C 175.73672 494.24922 176.36367 493.89512 176.95117 493.4668 C 177.53867 493.03848 178.0875 492.53672 178.59375 491.96094 C 179.1 491.38516 179.56367 490.73613 179.98242 490.01562 C 180.40117 489.29512 180.77461 488.50312 181.09961 487.64062 C 198.99959 440.974 216.9008 394.34019 234.80078 347.74023 C 235.26328 346.51524 235.63848 345.37773 235.92188 344.31641 C 236.20527 343.25508 236.39609 342.26992 236.49219 341.34961 C 236.58828 340.4293 236.58965 339.57344 236.49023 338.77148 C 236.39082 337.96953 236.18984 337.22187 235.88672 336.51562 C 235.58359 335.80938 235.17715 335.14492 234.66211 334.51172 C 234.14707 333.87852 233.52422 333.27617 232.78906 332.69336 C 232.05391 332.11055 231.20762 331.54727 230.24414 330.99219 C 229.28067 330.43711 228.2 329.88984 227 329.33984 C 225.075 328.46484 223.20649 327.52539 221.39648 326.52344 C 219.58648 325.52149 217.83418 324.45781 216.14258 323.33594 C 214.45098 322.21406 212.81977 321.03359 211.25 319.79883 C 209.68023 318.56406 208.17305 317.27422 206.72852 315.93359 C 205.28399 314.59297 203.90181 313.20117 202.58594 311.76172 C 201.27007 310.32227 200.01973 308.83594 198.83594 307.30469 C 197.65215 305.77344 196.53657 304.19805 195.48828 302.58203 C 194.43999 300.96602 193.46016 299.30898 192.55078 297.61523 C 191.64141 295.92149 190.8022 294.19023 190.03516 292.42578 C 189.26812 290.66133 188.57246 288.86328 187.95117 287.03516 C 187.32988 285.20703 186.78267 283.34961 186.31055 281.46484 C 185.83843 279.58008 185.44062 277.66875 185.12109 275.73438 C 184.80156 273.8 184.56001 271.84219 184.39648 269.86523 C 184.23296 267.88828 184.14863 265.8914 184.14453 263.87891 C 184.14043 261.86641 184.21626 259.83789 184.375 257.79688 C 184.53374 255.75586 184.77461 253.70312 185.09961 251.64062 C 185.45586 249.39063 185.9176 247.17519 186.48047 245 C 187.04333 242.82481 187.70752 240.68945 188.4668 238.59961 C 189.22607 236.50977 190.08186 234.46465 191.02734 232.4707 C 191.97283 230.47676 193.00742 228.53398 194.12891 226.64648 C 195.25039 224.75899 196.45881 222.92676 197.74609 221.15625 C 199.03337 219.38574 200.40088 217.67617 201.84375 216.0332 C 203.28662 214.39024 204.80432 212.81348 206.39258 211.30859 C 207.98083 209.80371 209.63985 208.37187 211.36328 207.01562 C 213.08672 205.65938 214.87425 204.37871 216.72266 203.18164 C 218.57107 201.98457 220.48018 200.87109 222.44336 199.84375 C 224.40654 198.81641 226.42444 197.87637 228.49219 197.0293 C 230.55993 196.18223 232.67774 195.42773 234.83984 194.77148 C 237.00195 194.11524 239.20882 193.55644 241.45508 193.10156 C 243.70134 192.64668 245.98643 192.2957 248.30664 192.05273 C 250.62685 191.80977 252.98128 191.6748 255.36523 191.6543 C 257.74919 191.63379 260.16211 191.72695 262.59961 191.93945 A 71.47 71.47 0 0 1 269.42773 192.85938 A 71.47 71.47 0 0 1 276.13672 194.43359 A 71.47 71.47 0 0 1 282.66211 196.64453 A 71.47 71.47 0 0 1 288.94336 199.47461 A 71.47 71.47 0 0 1 294.92383 202.89648 A 71.47 71.47 0 0 1 300.54688 206.87891 A 71.47 71.47 0 0 1 305.75977 211.38281 A 71.47 71.47 0 0 1 310.51562 216.36914 A 71.47 71.47 0 0 1 314.76758 221.78906 A 71.47 71.47 0 0 1 318.48047 227.59375 A 71.47 71.47 0 0 1 321.61523 233.73047 A 71.47 71.47 0 0 1 324.14453 240.13867 A 71.47 71.47 0 0 1 326.04688 246.75977 A 71.47 71.47 0 0 1 327.30078 253.53516 A 71.47 71.47 0 0 1 327.89844 260.39844 A 71.47 71.47 0 0 1 327.83008 267.28906 A 71.47 71.47 0 0 1 327.09961 274.14062 C 326.59961 277.44062 325.92695 280.61485 325.08398 283.66602 C 324.24102 286.71718 323.22891 289.64453 322.05078 292.44922 C 320.87266 295.2539 319.5289 297.93555 318.02344 300.49609 C 316.51797 303.05664 314.85039 305.49571 313.02539 307.81445 C 311.20039 310.1332 309.21679 312.33281 307.08008 314.41211 C 304.94336 316.4914 302.65351 318.45078 300.21289 320.29297 C 297.77227 322.13515 295.18203 323.85938 292.44531 325.4668 C 289.7086 327.07422 286.82578 328.56445 283.80078 329.93945 C 282.80078 330.38945 281.89316 330.86348 281.07617 331.36328 C 280.25918 331.86309 279.53125 332.38984 278.89453 332.94531 C 278.25781 333.50078 277.71113 334.08418 277.25195 334.70117 C 276.79277 335.31816 276.42109 335.96797 276.13672 336.65234 C 275.85234 337.33672 275.65527 338.05684 275.54297 338.81445 C 275.43066 339.57207 275.40391 340.36641 275.46094 341.20312 C 275.51797 342.03984 275.65918 342.91816 275.88281 343.83984 C 276.10645 344.76152 276.41328 345.72774 276.80078 346.74023 C 294.60076 393.10685 312.39924 439.44028 330.19922 485.74023 C 330.64922 486.91523 331.12285 487.97617 331.625 488.92578 C 332.12715 489.87539 332.65781 490.71367 333.22266 491.44336 C 333.7875 492.17305 334.38731 492.79336 335.02539 493.30859 C 335.66348 493.82383 336.34063 494.23281 337.0625 494.53906 C 337.78437 494.84531 338.55098 495.04961 339.36719 495.15234 C 340.1834 495.25508 341.04961 495.25742 341.9707 495.16211 C 342.8918 495.0668 343.86777 494.87383 344.9043 494.58594 C 345.94082 494.29805 347.03672 493.91445 348.19922 493.43945 C 351.56172 492.06445 354.88358 490.62357 358.16211 489.11914 C 361.44064 487.61471 364.67729 486.04819 367.86914 484.41797 C 371.061 482.78775 374.20807 481.09418 377.31055 479.3418 C 380.41302 477.58942 383.47007 475.77715 386.48047 473.90625 C 389.49087 472.03535 392.45548 470.10687 395.37109 468.12109 C 398.28671 466.13532 401.15258 464.09311 403.9707 461.99609 C 406.78883 459.89907 409.55941 457.74564 412.27734 455.54102 C 414.99528 453.33639 417.66231 451.08008 420.27734 448.77148 C 422.89238 446.46289 425.45541 444.10228 427.96484 441.69336 C 430.47428 439.28444 432.92895 436.82788 435.33008 434.32227 C 437.73121 431.81665 440.07706 429.26273 442.36719 426.66406 C 444.65731 424.0654 446.89195 421.42051 449.06836 418.73242 C 451.24477 416.04434 453.36383 413.31292 455.42383 410.53906 C 457.48383 407.7652 459.4849 404.94975 461.42578 402.09375 C 463.36666 399.23775 465.24735 396.34076 467.06641 393.40625 C 468.88546 390.47174 470.64336 387.49961 472.33789 384.49023 C 474.03242 381.48086 475.66317 378.43412 477.23047 375.35352 C 478.79777 372.27292 480.30092 369.15796 481.73828 366.00977 C 483.17565 362.86158 484.54684 359.68089 485.85156 356.46875 C 487.15629 353.25661 488.39507 350.01269 489.56445 346.74023 C 490.73384 343.46778 491.8339 340.16703 492.86523 336.83789 C 493.89657 333.50876 494.85941 330.15171 495.75 326.76953 C 496.64059 323.38736 497.4599 319.9804 498.20703 316.54883 C 498.95416 313.11725 499.62949 309.66093 500.23047 306.18359 C 500.83144 302.70625 501.35843 299.20697 501.81055 295.6875 C 502.26266 292.16803 502.6389 288.62827 502.93945 285.07031 C 503.24 281.51236 503.46505 277.93656 503.61133 274.34375 C 503.75761 270.75094 503.82515 267.1416 503.81445 263.51758 C 503.80376 259.89356 503.71334 256.25511 503.54297 252.60352 C 503.3726 248.95192 503.12181 245.28686 502.78906 241.61133 C 502.45631 237.93579 502.04276 234.24857 501.54492 230.55273 C 501.04709 226.8569 500.46641 223.15195 499.80078 219.43945 C 499.10078 215.52383 498.30795 211.63987 497.42578 207.78711 C 496.54362 203.93435 495.57163 200.11302 494.51172 196.32812 C 493.45181 192.54323 492.30355 188.79405 491.07031 185.08203 C 489.83707 181.37001 488.51933 177.69467 487.11719 174.06055 C 485.71504 170.42642 484.22875 166.83248 482.66211 163.28125 C 481.09547 159.73002 479.44741 156.22308 477.7207 152.75977 C 475.994 149.29645 474.189 145.8782 472.30664 142.50781 C 470.42428 139.13742 468.46523 135.81347 466.43164 132.54102 C 464.39805 129.26856 462.28978 126.04647 460.10938 122.87695 C 457.92897 119.70744 455.67632 116.59085 453.35352 113.5293 C 451.03072 110.46774 448.63656 107.46226 446.17578 104.51367 C 443.715 101.56508 441.18808 98.674362 438.59375 95.84375 C 435.99942 93.013138 433.33871 90.24278 430.61523 87.535156 C 427.89176 84.827533 425.10405 82.181186 422.25586 79.601562 C 419.40767 77.021939 416.49974 74.509113 413.53125 72.0625 C 410.56276 69.615887 407.53359 67.236326 404.44922 64.927734 C 401.36485 62.619143 398.22513 60.380402 395.0293 58.214844 C 391.83346 56.049285 388.58217 53.956968 385.2793 51.939453 C 381.97642 49.921938 378.62035 47.979695 375.21484 46.115234 C 371.80934 44.250774 368.35527 42.464207 364.85156 40.757812 C 361.34786 39.051418 357.79476 37.424178 354.19727 35.880859 C 350.59977 34.337541 346.95639 32.877184 343.26953 31.501953 C 339.58267 30.126723 335.85384 28.836898 332.08203 27.634766 C 328.31022 26.432634 324.49687 25.318944 320.64453 24.294922 C 316.79219 23.270899 312.89915 22.336996 308.9707 21.496094 C 305.04225 20.655192 301.07827 19.906677 297.07812 19.253906 C 293.07798 18.601136 289.04202 18.043612 284.97461 17.583984 C 280.90719 17.124357 276.808 16.763427 272.67773 16.501953 C 268.54747 16.240479 264.38597 16.079794 260.19727 16.021484 z M 251.14844 36.904297 C 255.27529 36.813538 259.3677 36.827548 263.42578 36.945312 C 267.48386 37.063077 271.50664 37.284912 275.49219 37.605469 C 279.47773 37.926025 283.42669 38.345664 287.33594 38.863281 C 291.24519 39.380899 295.11416 39.996131 298.94336 40.705078 C 302.77255 41.414025 306.56126 42.216783 310.30664 43.111328 C 314.05202 44.005874 317.7543 44.991993 321.41211 46.066406 C 325.06992 47.140819 328.68352 48.304185 332.25 49.552734 C 335.81648 50.801284 339.33721 52.13578 342.80859 53.552734 C 346.27998 54.969689 349.70169 56.4692 353.07422 58.048828 C 356.44675 59.628456 359.76914 61.286867 363.03906 63.023438 C 366.30898 64.760008 369.52591 66.575109 372.68945 68.462891 C 375.853 70.350673 378.96416 72.312441 382.01758 74.345703 C 385.07099 76.378965 388.06829 78.483239 391.00781 80.65625 C 393.94734 82.829261 396.82852 85.069924 399.65039 87.376953 C 402.47226 89.683982 405.23313 92.056872 407.93359 94.492188 C 410.63405 96.927503 413.27432 99.426504 415.84961 101.98438 C 418.4249 104.54225 420.93645 107.15929 423.38281 109.83398 C 425.82917 112.50868 428.20977 115.2396 430.52344 118.02539 C 432.83711 120.81118 435.08255 123.65182 437.25977 126.54297 C 439.43699 129.43412 441.54697 132.37641 443.58398 135.36719 C 445.62099 138.35797 447.58548 141.39774 449.47852 144.48242 C 451.37156 147.5671 453.19219 150.69629 454.9375 153.86914 C 456.68281 157.04199 458.35344 160.25839 459.94727 163.51367 C 461.54109 166.76896 463.05752 170.06449 464.49609 173.39648 C 465.93467 176.72848 467.29465 180.09703 468.57422 183.5 C 469.85378 186.90297 471.05313 190.34038 472.16992 193.80859 C 473.28672 197.2768 474.32122 200.77501 475.27148 204.30273 C 476.22175 207.83046 477.08916 211.38725 477.86914 214.96875 C 478.64912 218.55025 479.34133 222.15756 479.94727 225.78711 C 480.5532 229.41666 481.07188 233.06836 481.5 236.74023 C 481.925 240.43398 482.26704 244.10628 482.52734 247.75781 C 482.78765 251.40935 482.9666 255.03916 483.0625 258.64844 C 483.1584 262.25771 483.17173 265.8471 483.10352 269.41406 C 483.0353 272.98103 482.88437 276.52618 482.65234 280.05078 C 482.42031 283.57539 482.10649 287.07835 481.71094 290.56055 C 481.31538 294.04275 480.83809 297.50362 480.2793 300.94336 C 479.72051 304.3831 479.0811 307.80198 478.35938 311.19922 C 477.63765 314.59646 476.83359 317.97344 475.94922 321.32812 C 475.06484 324.68281 474.09946 328.01604 473.05273 331.32812 C 472.00601 334.64021 470.87871 337.92979 469.66992 341.19922 C 468.46113 344.46865 467.17134 347.71663 465.80078 350.94336 C 464.43023 354.17009 462.9793 357.37657 461.44727 360.56055 C 459.91524 363.74453 458.30259 366.90764 456.60938 370.04883 C 454.91616 373.19001 453.14121 376.30987 451.28711 379.4082 C 449.43301 382.50654 447.49907 385.58323 445.48438 388.63867 C 443.46968 391.69411 441.37422 394.72774 439.19922 397.74023 C 436.33672 401.70273 433.36797 405.53965 430.29492 409.25391 C 427.22188 412.96816 424.04531 416.55977 420.76562 420.0293 C 417.48594 423.49882 414.10351 426.8459 410.62109 430.07422 C 407.13868 433.30254 403.55625 436.41172 399.875 439.40234 C 396.19375 442.39297 392.41328 445.26504 388.53711 448.02148 C 384.66094 450.77793 380.68828 453.41953 376.62109 455.94531 C 372.55391 458.47109 368.39296 460.88106 364.13867 463.17969 C 359.88438 465.47832 355.5371 467.66524 351.09961 469.74023 C 350.29961 470.11523 349.62422 470.35234 349.04297 470.44922 C 348.46172 470.54609 347.97578 470.50195 347.55078 470.31445 C 347.12578 470.12695 346.76289 469.79648 346.43164 469.31836 C 346.10039 468.84023 345.8 468.21445 345.5 467.43945 C 330.56668 428.17283 315.50077 388.9402 300.30078 349.74023 C 300.00078 348.96524 299.825 348.30156 299.77344 347.71875 C 299.72188 347.13594 299.79453 346.63398 299.98828 346.17773 C 300.18203 345.72148 300.49766 345.31133 300.93359 344.91602 C 301.36953 344.5207 301.92461 344.14023 302.59961 343.74023 C 305.89961 341.75274 309.03321 339.65019 311.99609 337.43164 C 314.95898 335.21309 317.75078 332.8789 320.37109 330.42969 C 322.9914 327.98047 325.44063 325.41582 327.71289 322.73633 C 329.98515 320.05684 332.08125 317.26093 334 314.35156 C 335.91875 311.44219 337.65899 308.41816 339.21875 305.2793 C 340.77851 302.14043 342.1582 298.8875 343.35352 295.51953 C 344.54883 292.15157 345.55938 288.66894 346.38477 285.07227 C 347.21016 281.47559 347.85078 277.76445 348.30078 273.93945 A 91.64 91.64 0 0 0 348.77148 268.86523 A 91.64 91.64 0 0 0 348.96094 263.77148 A 91.64 91.64 0 0 0 348.86523 258.67383 A 91.64 91.64 0 0 0 348.48633 253.5918 A 91.64 91.64 0 0 0 347.82617 248.53711 A 91.64 91.64 0 0 0 346.88672 243.52734 A 91.64 91.64 0 0 0 345.66992 238.57812 A 91.64 91.64 0 0 0 344.17969 233.70312 A 91.64 91.64 0 0 0 342.41992 228.91992 A 91.64 91.64 0 0 0 340.39648 224.24023 A 91.64 91.64 0 0 0 338.11719 219.68164 A 91.64 91.64 0 0 0 335.58789 215.25586 A 91.64 91.64 0 0 0 332.81641 210.97852 A 91.64 91.64 0 0 0 329.8125 206.86133 A 91.64 91.64 0 0 0 326.58203 202.91797 A 91.64 91.64 0 0 0 323.13867 199.16016 A 91.64 91.64 0 0 0 319.49023 195.59961 A 91.64 91.64 0 0 0 315.65234 192.24609 A 91.64 91.64 0 0 0 311.63086 189.11328 A 91.64 91.64 0 0 0 307.44336 186.20703 A 91.64 91.64 0 0 0 303.09961 183.53906 C 300.69336 182.15156 298.25354 180.8802 295.78711 179.7207 C 293.32068 178.56121 290.82861 177.51533 288.31445 176.58203 C 285.8003 175.64873 283.26428 174.82805 280.71484 174.11914 C 278.16541 173.41023 275.60156 172.8125 273.0293 172.32617 C 270.45703 171.83984 267.87756 171.46477 265.29492 171.19922 C 262.71228 170.93367 260.12744 170.77705 257.54688 170.73047 C 254.96631 170.68389 252.39026 170.74739 249.82422 170.91797 C 247.25818 171.08855 244.70117 171.36602 242.16211 171.75195 C 239.62305 172.13789 237.10119 172.63098 234.60156 173.23047 C 232.10193 173.82996 229.62549 174.53643 227.17773 175.34766 C 224.72998 176.15889 222.31115 177.07454 219.92773 178.0957 C 217.54431 179.11687 215.19531 180.24336 212.88867 181.47266 C 210.58203 182.70195 208.31701 184.03508 206.09961 185.4707 C 203.8822 186.90632 201.71338 188.44385 199.59766 190.08398 C 197.48194 191.72412 195.41955 193.4677 193.41797 195.31055 C 191.41638 197.15339 189.47461 199.09688 187.59961 201.14062 C 185.78711 203.11562 184.07168 205.13789 182.45508 207.20898 C 180.83848 209.28008 179.3207 211.39883 177.9043 213.56445 C 176.48789 215.73008 175.17285 217.94258 173.96094 220.20117 C 172.74902 222.45976 171.63984 224.76524 170.63672 227.11523 C 169.63359 229.46523 168.7373 231.86094 167.94727 234.30078 C 167.15723 236.74062 166.475 239.22383 165.90234 241.75195 C 165.32969 244.28008 164.8666 246.85196 164.51562 249.4668 C 164.16465 252.08164 163.92578 254.73946 163.80078 257.43945 C 163.69453 259.7832 163.65623 262.09292 163.68555 264.36719 C 163.71487 266.64145 163.81045 268.88106 163.97461 271.08594 C 164.13877 273.29082 164.37166 275.46011 164.66992 277.5957 C 164.96819 279.7313 165.33203 281.83203 165.76367 283.89844 C 166.19531 285.96484 166.69353 287.99683 167.25781 289.99414 C 167.82209 291.99145 168.45225 293.95449 169.14844 295.88281 C 169.84463 297.81113 170.60623 299.70503 171.43359 301.56445 C 172.26096 303.42388 173.15547 305.24844 174.11328 307.03906 C 175.07109 308.82969 176.09412 310.58667 177.18164 312.30859 C 178.26916 314.03052 179.42022 315.71778 180.63672 317.37109 C 181.85322 319.02441 183.13377 320.6437 184.47852 322.22852 C 185.82327 323.81333 187.23281 325.36445 188.70508 326.88086 C 190.17734 328.39726 191.71345 329.88003 193.3125 331.32812 C 194.91155 332.77622 196.57373 334.18848 198.29883 335.56836 C 200.02392 336.94824 201.8117 338.29566 203.66211 339.60742 C 205.51252 340.91919 207.42539 342.1957 209.40039 343.43945 C 210.15039 343.91445 210.75547 344.36484 211.22266 344.82422 C 211.68984 345.28359 212.01914 345.75313 212.21289 346.26562 C 212.40664 346.77812 212.46484 347.33438 212.39453 347.96875 C 212.32422 348.60312 212.12578 349.31563 211.80078 350.14062 C 196.7008 389.24059 181.70077 428.33949 166.80078 467.43945 C 166.50078 468.21445 166.20039 468.84023 165.86914 469.31836 C 165.53789 469.79648 165.175 470.12695 164.75 470.31445 C 164.325 470.50195 163.83711 470.54609 163.25586 470.44922 C 162.67461 470.35234 161.99922 470.11523 161.19922 469.74023 C 156.11172 467.26524 151.17292 464.66452 146.38281 461.94727 C 141.5927 459.23001 136.95224 456.39521 132.45898 453.45117 C 127.96573 450.50713 123.62077 447.45417 119.42383 444.29883 C 115.22688 441.14348 111.17851 437.88632 107.27734 434.53516 C 103.37618 431.18399 99.621554 427.73855 96.015625 424.20703 C 92.409696 420.67552 88.951852 417.05771 85.640625 413.36133 C 82.329398 409.66495 79.1655 405.89069 76.148438 402.04492 C 73.131375 398.19915 70.260544 394.28242 67.537109 390.30273 C 64.813675 386.32305 62.236985 382.27976 59.806641 378.18164 C 57.376296 374.08352 55.092869 369.92959 52.955078 365.72852 C 50.817287 361.52745 48.826243 357.27878 46.980469 352.99023 C 45.134694 348.70169 43.433202 344.37421 41.878906 340.01367 C 40.324611 335.65313 38.91765 331.26081 37.654297 326.84375 C 36.390944 322.42669 35.271776 317.98544 34.298828 313.52734 C 33.32588 309.06924 32.497533 304.59304 31.814453 300.10938 C 31.131373 295.62571 30.592968 291.13437 30.199219 286.64062 C 29.849219 282.74063 29.625 278.86562 29.4375 275.14062 C 29.25 271.41563 29.10039 267.83906 28.900391 264.53906 C 28.956641 260.68594 29.097464 256.86588 29.322266 253.08008 C 29.547067 249.29428 29.855091 245.544 30.244141 241.82812 C 30.633191 238.11225 31.103348 234.43241 31.652344 230.78906 C 32.201339 227.14572 32.830518 223.53891 33.535156 219.9707 C 34.239794 216.40249 35.020976 212.87133 35.876953 209.38086 C 36.732931 205.89039 37.663001 202.43941 38.666016 199.0293 C 39.66903 195.61918 40.744877 192.25099 41.890625 188.92383 C 43.036373 185.59667 44.250978 182.31191 45.535156 179.07031 C 46.819335 175.82871 48.171538 172.62999 49.589844 169.47656 C 51.00815 166.32313 52.492885 163.215 54.041016 160.15234 C 55.589146 157.08969 57.201347 154.07279 58.875 151.10352 C 60.548653 148.13424 62.285207 145.21118 64.080078 142.33789 C 65.874949 139.4646 67.728838 136.63993 69.640625 133.86523 C 71.552412 131.09054 73.520522 128.36686 75.544922 125.69336 C 77.569322 123.01986 79.650493 120.39782 81.783203 117.82812 C 83.915913 115.25843 86.101174 112.74062 88.337891 110.27734 C 90.574607 107.81406 92.862798 105.40504 95.199219 103.05078 C 97.535639 100.69652 99.919741 98.396934 102.35156 96.154297 C 104.78338 93.91166 107.26224 91.726063 109.78516 89.597656 C 112.30808 87.46925 114.87466 85.398289 117.48438 83.386719 C 120.09409 81.375148 122.74725 79.423378 125.43945 77.53125 C 128.13166 75.639122 130.86437 73.807188 133.63477 72.037109 C 136.40516 70.267031 139.21236 68.557533 142.05664 66.912109 C 144.90092 65.266686 147.78145 63.684178 150.69531 62.166016 C 153.60918 60.647853 156.55601 59.194936 159.53516 57.806641 C 162.5143 56.418346 165.52628 55.095665 168.56641 53.839844 C 171.60653 52.584022 174.67469 51.394179 177.77148 50.273438 C 180.86828 49.152696 183.99341 48.100243 187.14258 47.117188 C 190.29174 46.134132 193.46487 45.22167 196.66211 44.378906 C 199.85934 43.536143 203.08127 42.764318 206.32227 42.064453 C 209.56327 41.364588 212.82501 40.736001 216.10547 40.181641 C 219.38593 39.62728 222.68438 39.146484 226 38.740234 C 230.25312 38.215235 234.4761 37.801107 238.66797 37.496094 C 242.85983 37.19108 247.02159 36.995056 251.14844 36.904297 z " />
  </g>
  <!--! Font Awesome Pro 6.2.1 by @fontawesome - https://fontawesome.com License - https://fontawesome.com/license (Commercial License) Copyright 2022 Fonticons, Inc. -->
</svg>
