<?xml version="1.0" encoding="UTF-8" standalone="no"?>
<svg
   version="1.2"
   viewBox="0 0 20 20"
   width="20"
   height="20"
   id="svg9"
   sodipodi:docname="udemy-original.svg"
   inkscape:version="1.2.1 (9c6d41e410, 2022-07-14, custom)"
   xmlns:inkscape="http://www.inkscape.org/namespaces/inkscape"
   xmlns:sodipodi="http://sodipodi.sourceforge.net/DTD/sodipodi-0.dtd"
   xmlns="http://www.w3.org/2000/svg"
   xmlns:svg="http://www.w3.org/2000/svg"
   xmlns:rdf="http://www.w3.org/1999/02/22-rdf-syntax-ns#"
   xmlns:cc="http://creativecommons.org/ns#"
   xmlns:dc="http://purl.org/dc/elements/1.1/">
  <defs
     id="defs13" />
  <sodipodi:namedview
     id="namedview11"
     pagecolor="#ffffff"
     bordercolor="#000000"
     borderopacity="0.25"
     inkscape:showpageshadow="2"
     inkscape:pageopacity="0.0"
     inkscape:pagecheckerboard="0"
     inkscape:deskcolor="#d1d1d1"
     showgrid="false"
     inkscape:zoom="35.426346"
     inkscape:cx="6.4782294"
     inkscape:cy="9.7102873"
     inkscape:window-width="1920"
     inkscape:window-height="1007"
     inkscape:window-x="0"
     inkscape:window-y="0"
     inkscape:window-maximized="1"
     inkscape:current-layer="svg9" />
  <title
     id="title2">UDMY_BIG copy-svg</title>
  <style
     id="style4">
		tspan { white-space:pre }
		.shp0 { fill: #a435f0 } 
		.shp1 { fill: #000000 } 
	</style>
  <g
     id="g300"
     transform="matrix(0.01298659,0,0,0.01298659,4.8426355,0)">
    <path
       id="Layer"
       class="shp0"
       d="M 794.2,458.62 397.04,229.29 0,458.62 V 229.29 L 397.1,0 794.26,229.29 v 229.33 z" />
    <path
       id="path7"
       fill-rule="evenodd"
       class="shp1"
       d="m 208.01,651.17 v 505.48 c 0,130.6 97.53,194.26 189.09,194.26 92.39,0 189.15,-65.36 189.15,-196.02 V 651.17 h 208.01 v 517.53 c 0,120.28 -37.81,213.11 -113.43,276.77 -75.72,63.62 -170.23,94.58 -285.46,94.58 -115.17,0 -209.75,-30.93 -283.61,-94.58 C 37.81,1381.87 0,1292.48 0,1173.84 V 651.17 Z" />
  </g>
  <metadata
     id="metadata242">
    <rdf:RDF>
      <cc:Work
         rdf:about="">
        <dc:title>UDMY_BIG copy-svg</dc:title>
      </cc:Work>
    </rdf:RDF>
  </metadata>
</svg>
